<svg xmlns="http://www.w3.org/2000/svg" viewBox="0 0 512 512"><path d="M486.56 367.878c-11.881 0-21.513 9.632-21.513 21.513v34.392c0 16.318-8.696 30.643-21.697 38.587V284.836c0-24.122-19.626-43.748-43.748-43.748h-122.09V216.59c33.909-9.433 58.873-40.567 58.873-77.44 0-16.169-4.782-31.733-13.834-45.074l-48.102-83.319a21.515 21.515 0 0 0-37.262 0L185.964 99.48a21.38 21.38 0 0 0-1.218 2.467 80.43 80.43 0 0 0-9.132 37.203c0 36.874 24.964 68.006 58.873 77.44v24.498H112.396c-24.122 0-43.746 19.626-43.746 43.748v177.536c-13-7.944-21.697-22.269-21.697-38.587v-34.392c0-11.881-9.632-21.513-21.513-21.513s-21.513 9.632-21.513 21.513v34.392C3.927 472.427 43.5 512 92.142 512h327.714c48.643 0 88.217-39.573 88.217-88.215v-34.392c0-11.883-9.631-21.515-21.513-21.515zM218.641 139.15c0-6.424 1.664-12.76 4.809-18.325.327-.578.624-1.166.892-1.764l31.477-54.52 29.892 51.775c.304.526.628 1.04.977 1.537 4.366 6.27 6.673 13.634 6.673 21.297 0 12.595-6.27 23.746-15.847 30.517v-18.085c0-11.881-9.632-21.513-21.513-21.513-11.881 0-21.513 9.632-21.513 21.513v18.084c-9.577-6.771-15.847-17.922-15.847-30.516zm181.683 329.102a.723.723 0 0 1-.721.721H112.396a.722.722 0 0 1-.72-.721V284.836c0-.397.324-.721.72-.721h287.206c.397 0 .721.324.721.721v183.416h.001z"/></svg>