<svg xmlns="http://www.w3.org/2000/svg" viewBox="0 0 621.3 65.1"><path fill="#6A1E41" d="M128.9 35.8c5.4-7.6 3.7-18.7-.9-21.9-8.1-5.9-16.9 6.4-12.8 18.5 4 12.5 14.1 21.3 27.9 23.8 29.8 5.3 88.8-27.2 126.1-37.1 27.8-7.4 44.7 3.7 53.9 16-18.8-13.3-36-8.7-53.6-5.4-40.5 7.5-82.4 39.4-126.8 34.4-20.7-3.1-35.2-23.7-34-39.8.1-1.4.3-2.8.7-4.2 2.7-9.6 7.5-13.5 11.8-14.6 11.5-3.3 22.9 17.8 7.7 30.3z"/><path fill="#6A1E41" d="M119.8 42.6C111.5 35.3 103.1 24 95.5 19 16-33.6-24.7 37.5 16 57.9c6.3 3.2 19.3 5 28.7-7.5-11.4 8.7-24.1 5.7-29.3 1.2-13.9-12-9.1-29 7.3-36.8 25.8-9.8 49.1.7 69.5 15.4 14.6 8.7 18.3 12.8 30.1 18.1-6.7.3-3.2-8.5-9.5-12.6l7 6.9zm365.8-9.1c-5.7 7.6-3.9 18.8 1 22.1 8.5 5.9 17.9-6.4 13.6-18.7-4.3-12.6-15-21.5-29.5-24-31.7-5.3-94.2 27.4-133.8 37.4-29.5 7.4-47.5-3.7-57.2-16.1 20 13.4 38.1 8.8 56.9 5.5C379.5 32.1 423.9-.1 471 5c22 3.1 37.4 23.9 36.1 40.1-.1 1.4-.4 2.8-.7 4.2-2.9 9.6-8 13.6-12.5 14.8-12.3 3.2-24.4-18-8.3-30.6z"/><path fill="#6A1E41" d="M495.6 22.8c8.6 7.2 17.5 18.5 25.4 23.4 83.4 52.2 126.2-18.3 83.4-38.6-6.6-3.1-20.3-5-30.1 7.4 12-8.6 25.3-5.7 30.8-1.2 14.6 11.9 9.5 28.8-7.7 36.5-27.1 9.8-51.6-.7-73-15.2-15.3-8.7-19.2-12.7-31.5-18 7-.3 3.3 8.4 10 12.5l-7.3-6.8z"/></svg>